<svg xmlns="http://www.w3.org/2000/svg" viewBox="0 0 32 32"><path fill="#FF5A5F" d="M16 1C7.7 1 1 7.7 1 16s6.7 15 15 15 15-6.7 15-15S24.3 1 16 1zm0 4c2.8 0 5.2 1.7 6.3 4.1l-2.4 3.5c-.7-1.1-1.3-2.1-2-3.1-.5-.8-1-1.5-1.5-2.2h-.1c-.2.3-.4.6-.6.9-.3.4-.6.9-.9 1.3l-2 3.1-2.4-3.5C11.4 6.8 13.5 5 16 5zm-7.5 16.5c-.7-1.2-1-2.5-1-3.9 0-2.6 1.3-4.9 2.8-7l.5-.7 3.4 5c-.5.7-1 1.4-1.5 2.2-.9 1.3-1.6 2.5-1.6 4 0 .5.2.9.5 1.2.3.3.8.4 1.2.2.6-.2 1.2-.8 2.1-2l1-1.4 1 1.4c.8 1.1 1.5 1.8 2.1 2 .4.2.9.1 1.2-.2.3-.3.5-.7.5-1.2 0-1.5-.7-2.7-1.6-4-.5-.8-1-1.5-1.5-2.2l3.4-5 .5.7c1.5 2.1 2.8 4.4 2.8 7 0 1.4-.4 2.7-1 3.9C21.3 24.4 18.8 26 16 26s-5.3-1.6-7.5-4.5z"/></svg>
