<svg xmlns="http://www.w3.org/2000/svg" viewBox="0 0 100 30"><path fill="#FF9900" d="M60.6 22.8c-5.5 4.1-13.5 6.2-20.4 6.2-9.6 0-18.3-3.6-24.9-9.5-.5-.5-.1-1.1.6-.8 7.1 4.1 15.8 6.6 24.9 6.6 6.1 0 12.8-1.3 19-3.9.9-.4 1.7.6.8 1.4z"/><path fill="#FF9900" d="M62.8 20.3c-.7-.9-4.7-.4-6.5-.2-.5.1-.6-.4-.1-.7 3.2-2.2 8.4-1.6 9-0.8.6.8-.2 6.1-3.1 8.7-.5.4-.9.2-.7-.3.7-1.7 2.1-5.8 1.4-6.7z"/><path fill="#fff" d="M56.5 3.5V1.2c0-.3.2-.5.5-.5h9.4c.3 0 .5.2.5.5v2c0 .3-.2.6-.6 1.2l-4.9 7c1.8 0 3.7.2 5.3 1.1.4.2.5.5.5.8v2.5c0 .3-.3.7-.7.5-2.8-1.5-6.5-1.6-9.6 0-.3.2-.7-.2-.7-.5v-2.4c0-.4 0-1 .3-1.5l5.6-8.1h-4.9c-.3 0-.5-.2-.7-.3zM20.5 17.4h-2.9c-.3 0-.5-.2-.5-.5V1.2c0-.3.3-.5.6-.5h2.7c.3 0 .5.2.5.5v2h.1c.7-1.9 2-2.8 3.8-2.8 1.8 0 3 .9 3.8 2.8.7-1.9 2.3-2.8 4-2.8 1.2 0 2.5.5 3.3 1.6.9 1.2.7 3 .7 4.6v8.4c0 .3-.3.5-.6.5h-2.9c-.3 0-.5-.2-.5-.5V7.3c0-.6.1-2.2-.1-2.8-.2-.9-.9-1.2-1.8-1.2-.7 0-1.5.5-1.8 1.3-.3.8-.3 2.1-.3 2.7v9.6c0 .3-.3.5-.6.5h-2.9c-.3 0-.5-.2-.5-.5V7.3c0-1.6.3-4-1.9-4-2.2 0-2.1 2.3-2.1 4v9.6c-.1.3-.3.5-.6.5zM49.6.9c4.3 0 6.6 3.7 6.6 8.4 0 4.5-2.6 8.2-6.6 8.2-4.2 0-6.5-3.7-6.5-8.3 0-4.6 2.3-8.3 6.5-8.3zm0 3.1c-2.1 0-2.3 2.9-2.3 4.7 0 1.8 0 5.7 2.2 5.7 2.2 0 2.3-3.1 2.3-5s-.1-2.5-.4-3.5c-.2-.9-.8-1.9-1.8-1.9zM10.7 17.4H7.8c-.3 0-.5-.2-.5-.5V1.1c0-.3.3-.5.6-.5h2.7c.3 0 .4.2.5.4v2.4h.1C11.8 1.6 13 .8 14.6.8c1.3 0 2.5.5 3.2 1.8C18.7 1.3 20 .8 21.3.8c1.2 0 2.3.5 3 1.4.8 1.1.6 2.6.6 4v10.6c0 .3-.3.5-.6.5H21.4c-.3 0-.5-.2-.5-.5V7.3c0-.6 0-2.1-.1-2.7-.2-1-.8-1.3-1.6-1.3-.7 0-1.4.5-1.7 1.2-.3.8-.3 2-.3 2.8v9.6c0 .3-.3.5-.6.5h-2.8c-.3 0-.5-.2-.5-.5V7.3c0-1.6.2-3.9-1.7-3.9s-2 2.2-2 3.9v9.6c-.1.2-.3.5-.6.5z"/></svg>
