<svg xmlns="http://www.w3.org/2000/svg" viewBox="0 0 111 30"><path fill="#E50914" d="M105.1 14.1l-5.5-14h-4.5l7.5 19.2c-.2.7-.6 1.2-1.1 1.5-.5.3-1.1.4-1.9.4h-1.8v3.4h2.2c1.7 0 3-.4 4-1.2s1.8-2 2.5-3.8L114.5.1h-4.3l-5.1 14zm-17.8-5.3c-1.3-.8-2.2-1.3-2.6-1.5-.4-.2-1-.5-1.8-.7-.8-.2-1.5-.3-2.2-.3-1.5 0-2.7.4-3.6 1.1-.9.7-1.3 1.7-1.3 2.9 0 .9.3 1.6.8 2.2.6.6 1.5 1.1 2.8 1.5l2.3.7c1.4.4 2.4 1 3 1.5.6.6.9 1.3.9 2.1 0 1-.4 1.8-1.1 2.4-.7.6-1.7.9-2.9.9-.8 0-1.6-.2-2.3-.5-.7-.3-1.5-.8-2.3-1.5l-2.3 2.9c1.8 1.5 3.9 2.3 6.3 2.3 2.2 0 4-.6 5.3-1.8 1.3-1.2 2-2.7 2-4.5 0-1.2-.3-2.2-1-3.1-.7-.8-1.8-1.5-3.5-2.1l-2.3-.7c-2.1-.7-3.1-1.5-3.1-2.6 0-.7.3-1.2.8-1.6.5-.4 1.2-.6 2-.6 1.3 0 2.7.6 4.2 1.7l2.2-2.8c-.3-.2-.8-.5-1.3-.9z"/><path fill="#E50914" d="M0 .1h4.8v24.3h4.5V.1h4.8v-0H0zM22.2.1v24.4h4.5V14.8h7V11h-7V3.9h8.3V.1zM41.5.1v24.3h12V20.6h-7.6V.1zM61 .1v24.3h4.5V.1zM71 .1l6.1 13.2h.1L83.2.1h4.7L78.5 17v7.5H74V17L64.5.1z"/></svg>
