<svg xmlns="http://www.w3.org/2000/svg" viewBox="0 0 270 270"><path fill="#E01E5A" d="M99.4 151.2c0 7.1-5.8 12.9-12.9 12.9H46.9c-7.1 0-12.9-5.8-12.9-12.9s5.8-12.9 12.9-12.9h39.6c7.1 0 12.9 5.8 12.9 12.9"/><path fill="#36C5F0" d="M118.8 151.2c0-7.1 5.8-12.9 12.9-12.9s12.9 5.8 12.9 12.9v39.6c0 7.1-5.8 12.9-12.9 12.9s-12.9-5.8-12.9-12.9v-39.6"/><path fill="#2EB67D" d="M131.7 99.4c-7.1 0-12.9-5.8-12.9-12.9V46.9c0-7.1 5.8-12.9 12.9-12.9s12.9 5.8 12.9 12.9v39.6c0 7.1-5.8 12.9-12.9 12.9"/><path fill="#ECB22E" d="M131.7 118.8c7.1 0 12.9 5.8 12.9 12.9s-5.8 12.9-12.9 12.9H92.1c-7.1 0-12.9-5.8-12.9-12.9s5.8-12.9 12.9-12.9h39.6"/><path fill="#E01E5A" d="M183.5 118.8c0-7.1 5.8-12.9 12.9-12.9h39.6c7.1 0 12.9 5.8 12.9 12.9s-5.8 12.9-12.9 12.9h-39.6c-7.1 0-12.9-5.8-12.9-12.9"/><path fill="#36C5F0" d="M164.1 118.8c0 7.1-5.8 12.9-12.9 12.9s-12.9-5.8-12.9-12.9V79.2c0-7.1 5.8-12.9 12.9-12.9s12.9 5.8 12.9 12.9v39.6"/><path fill="#2EB67D" d="M151.2 170.6c7.1 0 12.9 5.8 12.9 12.9v39.6c0 7.1-5.8 12.9-12.9 12.9s-12.9-5.8-12.9-12.9v-39.6c0-7.1 5.8-12.9 12.9-12.9"/><path fill="#ECB22E" d="M151.2 151.2c-7.1 0-12.9 5.8-12.9 12.9s5.8 12.9 12.9 12.9h39.6c7.1 0 12.9-5.8 12.9-12.9s-5.8-12.9-12.9-12.9h-39.6"/></svg>
